<svg width="900" height="258" viewBox="0 0 900 258" fill="none" xmlns="http://www.w3.org/2000/svg">
<path d="M77.681 134V42.864H59.889V80.112H29.041V42.864H11.249V134H29.041V95.856H59.889V134H77.681ZM156.316 134V118.128H114.076V95.984H150.044V80.112H114.076V58.736H156.316V42.864H96.284V134H156.316ZM240.954 134V42.864H223.162V98.672L187.066 42.864H171.194V134H188.986V78.064L225.082 134H240.954ZM328.596 134L308.244 94.704C317.076 91.504 324.884 83.568 324.884 70.768C324.884 55.536 313.876 42.864 295.316 42.864H259.604V134H277.396V97.648H290.196L307.988 134H328.596ZM307.092 70.768C307.092 77.808 301.972 82.8 294.164 82.8H277.396V58.736H294.164C301.972 58.736 307.092 63.728 307.092 70.768ZM402.347 42.864H383.019L366.251 79.6L349.227 42.864H329.899L357.291 96.624V134H374.955V96.624L402.347 42.864Z" fill="black"/>
<path d="M480.977 227L448.593 172.088L478.801 135.864H457.169L425.041 175.544V135.864H407.249V227H425.041V199.608L436.817 185.528L460.241 227H480.977ZM558.776 227L538.424 187.704C547.256 184.504 555.064 176.568 555.064 163.768C555.064 148.536 544.056 135.864 525.496 135.864H489.784V227H507.576V190.648H520.376L538.168 227H558.776ZM537.272 163.768C537.272 170.808 532.152 175.8 524.344 175.8H507.576V151.736H524.344C532.152 151.736 537.272 156.728 537.272 163.768ZM641.344 227L608.064 135.864H594.112L560.96 227H579.52L585.024 210.872H617.408L622.784 227H641.344ZM612.672 195.896H590.016L601.536 162.744L612.672 195.896ZM732.539 227V135.864H715.003L691.323 185.144L667.515 135.864H649.979V227H667.771V173.88L685.307 208.44H697.339L714.747 173.88V227H732.539ZM811.171 227V211.128H768.931V188.984H804.899V173.112H768.931V151.736H811.171V135.864H751.139V227H811.171ZM895.041 227L874.689 187.704C883.521 184.504 891.329 176.568 891.329 163.768C891.329 148.536 880.321 135.864 861.761 135.864H826.049V227H843.841V190.648H856.641L874.433 227H895.041ZM873.537 163.768C873.537 170.808 868.417 175.8 860.609 175.8H843.841V151.736H860.609C868.417 151.736 873.537 156.728 873.537 163.768Z" fill="black"/>
</svg>
